Coordinates
version=1
nRows=26
nColumns=22
inDegrees=yes

Units are S.I. units (second, meters, Newtons, ...)
If the header above contains a line with 'inDegrees', this indicates whether rotational values are in degrees (yes) or radians (no).

endheader
time	pelvis_tilt	pelvis_list	pelvis_rotation	pelvis_tx	pelvis_ty	pelvis_tz	hip_flexion_r	hip_adduction_r	hip_rotation_r	knee_angle_r	ankle_angle_r	subtalar_angle_r	hip_flexion_l	hip_adduction_l	hip_rotation_l	knee_angle_l	ankle_angle_l	subtalar_angle_l	lumbar_extension	lumbar_bending	lumbar_rotation
      0.01000000	    -11.02629133	      2.80957965	    -34.75237666	     -0.98787088	      0.88197045	     -0.37176146	     13.64848776	      4.46218225	     -1.04674315	     -7.60276587	     10.17253484	     -2.52150557	     15.48537824	     -5.80644210	     -2.50648304	    -17.85734439	     16.93379039	      3.58163373	      4.16936082	      3.20333552	      9.98630026
      0.02000000	    -11.04006008	      2.81304084	    -34.74135218	     -0.98779714	      0.88193481	     -0.37170246	     13.64957111	      4.46625669	     -1.05667291	     -7.59226782	     10.18165511	     -2.52404434	     15.49909845	     -5.81036399	     -2.49540122	    -17.86547284	     16.93747218	      3.58173217	      4.14891312	      3.19780772	     10.01411213
      0.03000000	    -11.06100184	      2.81424692	    -34.72386138	     -0.98771309	      0.88189122	     -0.37163727	     13.65126737	      4.47602034	     -1.07105310	     -7.57561870	     10.19061887	     -2.52701017	     15.51986327	     -5.81963023	     -2.47856271	    -17.87765379	     16.94755684	      3.58190316	      4.12893716	      3.19621263	     10.04598865
      0.04000000	    -11.08806954	      2.81435320	    -34.70104610	     -0.98762130	      0.88184190	     -0.37157444	     13.65482916	      4.48937024	     -1.09066952	     -7.55447044	     10.19660289	     -2.53036095	     15.54633493	     -5.83192650	     -2.45632600	    -17.88957764	     16.96115567	      3.58187467	      4.11125385	      3.19761783	     10.08122459
      0.05000000	    -11.14420222	      2.80596925	    -34.65579242	     -0.98752364	      0.88176448	     -0.37153028	     13.67658802	      4.52353733	     -1.12910386	     -7.52931664	     10.18476966	     -2.54184364	     15.60361275	     -5.86479367	     -2.40839688	    -17.91138865	     16.99691008	      3.57917810	      4.11614581	      3.22355943	     10.08835673
      0.06000000	    -11.16842493	      2.81249770	    -34.62974226	     -0.98742148	      0.88172664	     -0.37146606	     13.68020380	      4.52882735	     -1.15009771	     -7.50676922	     10.18927921	     -2.54430203	     15.62590028	     -5.86813439	     -2.38971052	    -17.91334934	     16.99796179	      3.57805527	      4.09884642	      3.21435691	     10.13645164
      0.07000000	    -11.19945879	      2.81826351	    -34.59810892	     -0.98730879	      0.88168766	     -0.37140417	     13.68520121	      4.53737639	     -1.17467172	     -7.47857017	     10.19090136	     -2.54659074	     15.65119154	     -5.87380180	     -2.36067033	    -17.90904179	     17.00413369	      3.57472001	      4.08938159	      3.20884228	     10.18610055
      0.08000000	    -11.25807837	      2.82301962	    -34.54530291	     -0.98718262	      0.88161719	     -0.37136902	     13.70811134	      4.55853805	     -1.21451262	     -7.43866017	     10.16822271	     -2.55191139	     15.70492321	     -5.88890286	     -2.28921833	    -17.90374823	     17.01981509	      3.55405141	      4.10959382	      3.22120826	     10.20330152
      0.09000000	    -11.28372012	      2.82920733	    -34.51334038	     -0.98704848	      0.88158845	     -0.37130786	     13.70615812	      4.56219269	     -1.23861906	     -7.40943100	     10.17454980	     -2.55249133	     15.72701618	     -5.88909769	     -2.27236842	    -17.90317333	     17.02086280	      3.54837705	      4.09830573	      3.21257164	     10.25793140
      0.10000000	    -11.31789258	      2.83837603	    -34.48457778	     -0.98690862	      0.88154635	     -0.37124389	     13.70509815	      4.56877134	     -1.26789273	     -7.36259625	     10.17563316	     -2.55187008	     15.75566403	     -5.88941011	     -2.23534800	    -17.89953258	     17.02583222	      3.53647773	      4.09726720	      3.20755341	     10.31304644
      0.11000000	    -11.38240895	      2.84473260	    -34.42761917	     -0.98675090	      0.88146719	     -0.37123057	     13.71493638	      4.58805616	     -1.30205858	     -7.28890147	     10.13655724	     -2.54364029	     15.82328704	     -5.89769054	     -2.14506443	    -17.90658493	     17.03911946	      3.47048335	      4.12417631	      3.22775117	     10.30958086
      0.12000000	    -11.40813626	      2.85124865	    -34.40581498	     -0.98660482	      0.88142932	     -0.37116434	     13.70639327	      4.59207358	     -1.32666940	     -7.24780106	     10.14498976	     -2.54116583	     15.85129728	     -5.89337208	     -2.11676791	    -17.92115243	     17.04145581	      3.45377694	      4.11075357	      3.22223965	     10.36533452
      0.13000000	    -11.46459914	      2.85063379	    -34.35598935	     -0.98643437	      0.88135374	     -0.37114754	     13.69047028	      4.61296136	     -1.34792960	     -7.14835521	     10.11408097	     -2.52367464	     15.91898169	     -5.89987100	     -2.02337111	    -17.95428628	     17.06883453	      3.35579609	      4.12229728	      3.24624199	     10.35606353
      0.14000000	    -11.50658088	      2.84084239	    -34.31672534	     -0.98625704	      0.88129427	     -0.37112790	     13.66791400	      4.63435947	     -1.38255666	     -7.07246548	     10.09608797	     -2.50529908	     15.97372384	     -5.90589295	     -1.94633344	    -18.00170871	     17.09190899	      3.23922047	      4.11259522	      3.27193780	     10.36875576
      0.15000000	    -11.54249567	      2.83159433	    -34.28571610	     -0.98606864	      0.88123630	     -0.37109888	     13.63593089	      4.65391156	     -1.40178273	     -6.98891911	     10.08166385	     -2.48974290	     16.02005689	     -5.90671589	     -1.86637377	    -18.04967957	     17.11999759	      3.13148482	      4.09669899	      3.29497181	     10.38174466
      0.16000000	    -11.57745112	      2.81278515	    -34.25442806	     -0.98585451	      0.88118084	     -0.37107248	     13.59289103	      4.67947634	     -1.42750877	     -6.90076748	     10.06296257	     -2.47566569	     16.06495986	     -5.91395642	     -1.78107561	    -18.10906483	     17.15371138	      3.01727003	      4.07550370	      3.32854947	     10.39817875
      0.17000000	    -11.59639837	      2.81225821	    -34.24956596	     -0.98564883	      0.88113223	     -0.37100975	     13.56832332	      4.68564273	     -1.44530156	     -6.85440844	     10.07107709	     -2.47302047	     16.09294002	     -5.90401199	     -1.72878976	    -18.15602246	     17.16083300	      2.99372373	      4.05095402	      3.33293848	     10.46119762
      0.18000000	    -11.64438755	      2.77042336	    -34.20396926	     -0.98537554	      0.88106929	     -0.37099018	     13.49549881	      4.73534698	     -1.46016543	     -6.71942498	     10.03318667	     -2.45693142	     16.14281189	     -5.93671772	     -1.61861401	    -18.23006342	     17.24031552	      2.85588182	      4.03408478	      3.39733948	     10.44236034
      0.19000000	    -11.67689831	      2.74238350	    -34.18241563	     -0.98511185	      0.88102472	     -0.37095164	     13.44715745	      4.76798760	     -1.49423304	     -6.63975210	     10.00526880	     -2.44358124	     16.17226267	     -5.95576825	     -1.54086003	    -18.28637438	     17.27815699	      2.72292021	      4.01011283	      3.43769685	     10.48491475
      0.20000000	    -11.69592468	      2.74543888	    -34.18102146	     -0.98484991	      0.88097594	     -0.37090392	     13.42594334	      4.76787088	     -1.51263239	     -6.60060319	     10.01613320	     -2.44168631	     16.19203368	     -5.94771677	     -1.50363616	    -18.32079439	     17.28478998	      2.70745510	      3.99434233	      3.44081423	     10.55812247
      0.21000000	    -11.72147185	      2.74454150	    -34.17831795	     -0.98457833	      0.88092215	     -0.37086103	     13.40036217	      4.77472968	     -1.52454838	     -6.54601102	     10.02300359	     -2.43749508	     16.21327380	     -5.94874171	     -1.46504800	    -18.35314883	     17.30763497	      2.68501247	      3.98340468	      3.45103629	     10.63268497
      0.22000000	    -11.75096631	      2.74265242	    -34.18019505	     -0.98429735	      0.88086879	     -0.37082033	     13.37656850	      4.78531196	     -1.53113328	     -6.49034354	     10.02105773	     -2.43134305	     16.23214749	     -5.95486449	     -1.43862237	    -18.37715031	     17.33700917	      2.65825766	      3.97726528	      3.46518070	     10.70459400
      0.23000000	    -11.79610364	      2.72984710	    -34.20205849	     -0.98403331	      0.88080919	     -0.37075806	     13.34904890	      4.81977066	     -1.48617006	     -6.40960342	      9.97230020	     -2.40696760	     16.25371199	     -5.98862486	     -1.44680364	    -18.40059133	     17.40453262	      2.56574547	      3.97751343	      3.50253613	     10.77536493
      0.24000000	    -11.81908891	      2.73899333	    -34.20916650	     -0.98373251	      0.88076586	     -0.37074855	     13.33937523	      4.81431202	     -1.50506246	     -6.37783189	      9.97941103	     -2.40329089	     16.26385342	     -5.98038164	     -1.44014164	    -18.40985111	     17.40661846	      2.55111839	      3.97154781	      3.50262175	     10.84795647
      0.25000000	    -11.85205344	      2.76149822	    -34.25580782	     -0.98346159	      0.88071004	     -0.37068958	     13.34085354	      4.81308730	     -1.44360076	     -6.33321166	      9.95973270	     -2.37738875	     16.27047356	     -5.97742906	     -1.48148184	    -18.39720706	     17.43958106	      2.47194575	      3.98252146	      3.49815410	     10.95117089
      0.26000000	    -11.87766431	      2.77195955	    -34.26368910	     -0.98312990	      0.88067133	     -0.37070479	     13.33353369	      4.80576530	     -1.45918085	     -6.30200827	      9.96807736	     -2.37282542	     16.27656258	     -5.96523774	     -1.48248882	    -18.39528819	     17.44264386	      2.45574929	      3.98079307	      3.49906520	     11.01379396
